<svg width="100" height="28" viewBox="0 0 100 28" fill="none" xmlns="http://www.w3.org/2000/svg">
<path d="M25.5432 18.7717L24.2531 9.83501C23.9216 7.53668 21.9213 5.83334 19.5658 5.83334H8.84199C6.48654 5.83334 4.48618 7.53668 4.15476 9.83501L2.86459 18.7717C2.60418 20.5683 4.01272 22.1667 5.84737 22.1667C6.65225 22.1667 7.40978 21.8517 7.97793 21.2917L10.653 18.6667H17.7548L20.418 21.2917C20.9862 21.8517 21.7556 22.1667 22.5486 22.1667C24.3951 22.1667 25.8036 20.5683 25.5432 18.7717ZM13.0203 12.8333H10.653V15.1667H9.46933V12.8333H7.10204V11.6667H9.46933V9.33334H10.653V11.6667H13.0203V12.8333ZM17.7548 11.6667C17.1038 11.6667 16.5712 11.1417 16.5712 10.5C16.5712 9.85834 17.1038 9.33334 17.7548 9.33334C18.4058 9.33334 18.9385 9.85834 18.9385 10.5C18.9385 11.1417 18.4058 11.6667 17.7548 11.6667ZM20.1221 15.1667C19.4711 15.1667 18.9385 14.6417 18.9385 14C18.9385 13.3583 19.4711 12.8333 20.1221 12.8333C20.7731 12.8333 21.3058 13.3583 21.3058 14C21.3058 14.6417 20.7731 15.1667 20.1221 15.1667Z" fill="#2A7AE4"/>
<path d="M72.7733 17.92C71.9684 18.7134 71.031 19.11 69.961 19.11C69.2981 19.11 68.6732 18.9794 68.0861 18.718C67.5085 18.4567 67.0019 18.0974 66.5663 17.64C66.1402 17.1827 65.7993 16.646 65.5436 16.03C65.2974 15.4047 65.1743 14.7327 65.1743 14.014C65.1743 13.3327 65.2974 12.6934 65.5436 12.096C65.7993 11.4894 66.1449 10.962 66.5805 10.514C67.0255 10.0567 67.5463 9.69737 68.1429 9.43604C68.7395 9.16537 69.3881 9.03004 70.0888 9.03004C71.0357 9.03004 71.8453 9.22604 72.5177 9.61804C73.1994 10.01 73.7108 10.5374 74.0517 11.2L72.5887 12.264C72.333 11.7694 71.9732 11.3914 71.5092 11.13C71.0547 10.8687 70.5575 10.738 70.0178 10.738C69.5917 10.738 69.1987 10.8267 68.8389 11.004C68.4885 11.1814 68.1855 11.424 67.9298 11.732C67.6836 12.04 67.4895 12.3947 67.3475 12.796C67.2149 13.1974 67.1486 13.622 67.1486 14.07C67.1486 14.5367 67.2244 14.9754 67.3759 15.386C67.5274 15.7874 67.7357 16.1374 68.0009 16.436C68.266 16.7347 68.5785 16.9727 68.9383 17.15C69.3076 17.318 69.7053 17.402 70.1314 17.402C71.1067 17.402 71.9874 16.9494 72.7733 16.044V15.344H70.7422V13.93H74.3925V19.04H72.7733V17.92Z" fill="#464646"/>
<path d="M79.3299 19.18C78.7333 19.18 78.1936 19.082 77.7107 18.886C77.2277 18.6807 76.8158 18.4054 76.4749 18.06C76.1341 17.7147 75.8689 17.3134 75.6795 16.856C75.4996 16.3987 75.4097 15.918 75.4097 15.414C75.4097 14.8914 75.4996 14.4014 75.6795 13.944C75.8595 13.4774 76.1199 13.0714 76.4607 12.726C76.8016 12.3714 77.2135 12.0914 77.6965 11.886C78.1889 11.6807 78.7381 11.578 79.3441 11.578C79.9501 11.578 80.4899 11.6807 80.9633 11.886C81.4463 12.0914 81.8534 12.3667 82.1849 12.712C82.5257 13.0574 82.7814 13.4587 82.9519 13.916C83.1318 14.3734 83.2217 14.8494 83.2217 15.344C83.2217 15.4654 83.217 15.582 83.2075 15.694C83.2075 15.806 83.1981 15.8994 83.1791 15.974H77.4266C77.455 16.2634 77.526 16.52 77.6397 16.744C77.7533 16.968 77.9001 17.1594 78.08 17.318C78.2599 17.4767 78.4635 17.598 78.6907 17.682C78.918 17.766 79.1547 17.808 79.4009 17.808C79.7797 17.808 80.1348 17.7194 80.4662 17.542C80.8071 17.3554 81.0391 17.1127 81.1622 16.814L82.7956 17.262C82.521 17.822 82.0807 18.284 81.4747 18.648C80.8781 19.0027 80.1632 19.18 79.3299 19.18ZM81.2616 14.756C81.2143 14.2054 81.0059 13.7667 80.6366 13.44C80.2768 13.104 79.8365 12.936 79.3157 12.936C79.06 12.936 78.8186 12.9827 78.5913 13.076C78.3735 13.16 78.1794 13.2814 78.009 13.44C77.8385 13.5987 77.6965 13.79 77.5828 14.014C77.4787 14.238 77.4171 14.4854 77.3982 14.756H81.2616Z" fill="#464646"/>
<path d="M87.8327 19.18C87.2362 19.18 86.6964 19.082 86.2135 18.886C85.7306 18.6807 85.3187 18.4054 84.9778 18.06C84.6369 17.7147 84.3718 17.3134 84.1824 16.856C84.0025 16.3987 83.9125 15.918 83.9125 15.414C83.9125 14.8914 84.0025 14.4014 84.1824 13.944C84.3623 13.4774 84.6227 13.0714 84.9636 12.726C85.3045 12.3714 85.7164 12.0914 86.1993 11.886C86.6917 11.6807 87.2409 11.578 87.8469 11.578C88.453 11.578 88.9927 11.6807 89.4662 11.886C89.9491 12.0914 90.3563 12.3667 90.6877 12.712C91.0286 13.0574 91.2842 13.4587 91.4547 13.916C91.6346 14.3734 91.7246 14.8494 91.7246 15.344C91.7246 15.4654 91.7198 15.582 91.7104 15.694C91.7104 15.806 91.7009 15.8994 91.6819 15.974H85.9294C85.9578 16.2634 86.0289 16.52 86.1425 16.744C86.2561 16.968 86.4029 17.1594 86.5828 17.318C86.7627 17.4767 86.9663 17.598 87.1936 17.682C87.4208 17.766 87.6576 17.808 87.9038 17.808C88.2825 17.808 88.6376 17.7194 88.969 17.542C89.3099 17.3554 89.5419 17.1127 89.665 16.814L91.2984 17.262C91.0238 17.822 90.5835 18.284 89.9775 18.648C89.3809 19.0027 88.666 19.18 87.8327 19.18ZM89.7644 14.756C89.7171 14.2054 89.5088 13.7667 89.1395 13.44C88.7796 13.104 88.3393 12.936 87.8185 12.936C87.5629 12.936 87.3214 12.9827 87.0941 13.076C86.8763 13.16 86.6822 13.2814 86.5118 13.44C86.3413 13.5987 86.1993 13.79 86.0857 14.014C85.9815 14.238 85.92 14.4854 85.901 14.756H89.7644Z" fill="#464646"/>
<path d="M97.969 19.04L95.81 15.862L94.7874 16.856V19.04H92.8841V8.82004H94.7874V15.022L97.7701 11.718H99.8013L97.0315 14.826L100 19.04H97.969Z" fill="#464646"/>
<path d="M32.2569 9.10004H33.9898L37.8248 19.04H35.8079L34.8704 16.562H31.3479L30.4246 19.04H28.4077L32.2569 9.10004ZM34.5153 15.204L33.1234 11.298L31.6746 15.204H34.5153Z" fill="#2A7AE4"/>
<path d="M38.7321 8.82004H40.6354V16.688C40.6354 16.9587 40.7016 17.1687 40.8342 17.318C40.9668 17.4674 41.1562 17.542 41.4024 17.542C41.516 17.542 41.6391 17.5234 41.7717 17.486C41.9137 17.4487 42.0463 17.402 42.1694 17.346L42.425 18.774C42.1694 18.8954 41.8711 18.9887 41.5302 19.054C41.1893 19.1194 40.8816 19.152 40.607 19.152C40.0104 19.152 39.5464 18.998 39.215 18.69C38.893 18.3727 38.7321 17.9247 38.7321 17.346V8.82004Z" fill="#2A7AE4"/>
<path d="M45.5269 19.18C44.7599 19.18 44.1775 18.9374 43.7798 18.452C43.3821 17.9667 43.1833 17.248 43.1833 16.296V11.704H45.0866V15.89C45.0866 17.0194 45.4985 17.584 46.3223 17.584C46.6916 17.584 47.0467 17.4767 47.3876 17.262C47.7379 17.038 48.022 16.702 48.2398 16.254V11.704H50.1431V16.884C50.1431 17.08 50.1762 17.22 50.2425 17.304C50.3183 17.388 50.4367 17.4347 50.5976 17.444V19.04C50.4082 19.0774 50.2473 19.1007 50.1147 19.11C49.9916 19.1194 49.878 19.124 49.7738 19.124C49.4329 19.124 49.1536 19.0494 48.9358 18.9C48.7275 18.7414 48.6044 18.5267 48.5665 18.256L48.5239 17.668C48.1925 18.172 47.7663 18.55 47.2455 18.802C46.7247 19.054 46.1519 19.18 45.5269 19.18Z" fill="#2A7AE4"/>
<path d="M56.4661 13.328C55.8885 13.3374 55.3724 13.4494 54.9179 13.664C54.4634 13.8694 54.1367 14.182 53.9378 14.602V19.04H52.0345V11.704H53.7816V13.272C53.9142 13.02 54.0704 12.796 54.2503 12.6C54.4302 12.3947 54.6244 12.2174 54.8327 12.068C55.041 11.9187 55.2493 11.8067 55.4576 11.732C55.6754 11.648 55.8837 11.606 56.0826 11.606C56.1868 11.606 56.2625 11.606 56.3099 11.606C56.3667 11.606 56.4188 11.6107 56.4661 11.62V13.328Z" fill="#2A7AE4"/>
<path d="M59.4614 19.18C59.1016 19.18 58.7654 19.124 58.453 19.012C58.1405 18.8907 57.8706 18.7274 57.6433 18.522C57.4161 18.3074 57.2362 18.06 57.1036 17.78C56.9805 17.5 56.919 17.192 56.919 16.856C56.919 16.5107 56.9947 16.1934 57.1462 15.904C57.3072 15.6054 57.525 15.3534 57.7996 15.148C58.0837 14.9427 58.4198 14.784 58.8081 14.672C59.1963 14.5507 59.6224 14.49 60.0864 14.49C60.4178 14.49 60.7398 14.518 61.0522 14.574C61.3742 14.63 61.6583 14.7094 61.9045 14.812V14.392C61.9045 13.9067 61.7624 13.5334 61.4784 13.272C61.2038 13.0107 60.7918 12.88 60.2426 12.88C59.8449 12.88 59.4567 12.95 59.0779 13.09C58.6992 13.23 58.3109 13.4354 57.9132 13.706L57.3309 12.516C58.2873 11.8907 59.3194 11.578 60.4273 11.578C61.4973 11.578 62.3258 11.8394 62.9129 12.362C63.5095 12.8754 63.8078 13.622 63.8078 14.602V16.884C63.8078 17.08 63.8409 17.22 63.9072 17.304C63.983 17.388 64.1013 17.4347 64.2623 17.444V19.04C63.9403 19.1054 63.661 19.138 63.4243 19.138C63.0644 19.138 62.7851 19.0587 62.5863 18.9C62.3969 18.7414 62.2785 18.5314 62.2312 18.27L62.1885 17.864C61.8571 18.2934 61.4547 18.62 60.9812 18.844C60.5078 19.068 60.0012 19.18 59.4614 19.18ZM60.0012 17.808C60.3231 17.808 60.6261 17.752 60.9102 17.64C61.2038 17.528 61.431 17.3787 61.592 17.192C61.8003 17.0334 61.9045 16.856 61.9045 16.66V15.82C61.6772 15.736 61.431 15.6707 61.1659 15.624C60.9007 15.568 60.6451 15.54 60.3989 15.54C59.9065 15.54 59.504 15.652 59.1916 15.876C58.8791 16.0907 58.7228 16.366 58.7228 16.702C58.7228 17.0194 58.8459 17.2854 59.0921 17.5C59.3383 17.7054 59.6413 17.808 60.0012 17.808Z" fill="#2A7AE4"/>
</svg>
